<svg width="46" height="46" viewBox="0 0 46 46" fill="none" xmlns="http://www.w3.org/2000/svg">
<rect x="0.5" y="0.5" width="45" height="45" rx="9.5" fill="#262626"/>
<rect x="0.5" y="0.5" width="45" height="45" rx="9.5" stroke="#737373"/>
<path d="M23 30C26.866 30 30 26.866 30 23C30 19.134 26.866 16 23 16C19.134 16 16 19.134 16 23C16 26.866 19.134 30 23 30Z" fill="#FAFAFA"/>
<path d="M23 33.96C22.45 33.96 22 33.55 22 33V32.92C22 32.37 22.45 31.92 23 31.92C23.55 31.92 24 32.37 24 32.92C24 33.47 23.55 33.96 23 33.96ZM30.14 31.14C29.88 31.14 29.63 31.04 29.43 30.85L29.3 30.72C28.91 30.33 28.91 29.7 29.3 29.31C29.69 28.92 30.32 28.92 30.71 29.31L30.84 29.44C31.23 29.83 31.23 30.46 30.84 30.85C30.65 31.04 30.4 31.14 30.14 31.14ZM15.86 31.14C15.6 31.14 15.35 31.04 15.15 30.85C14.76 30.46 14.76 29.83 15.15 29.44L15.28 29.31C15.67 28.92 16.3 28.92 16.69 29.31C17.08 29.7 17.08 30.33 16.69 30.72L16.56 30.85C16.37 31.04 16.11 31.14 15.86 31.14ZM33 24H32.92C32.37 24 31.92 23.55 31.92 23C31.92 22.45 32.37 22 32.92 22C33.47 22 33.96 22.45 33.96 23C33.96 23.55 33.55 24 33 24ZM13.08 24H13C12.45 24 12 23.55 12 23C12 22.45 12.45 22 13 22C13.55 22 14.04 22.45 14.04 23C14.04 23.55 13.63 24 13.08 24ZM30.01 16.99C29.75 16.99 29.5 16.89 29.3 16.7C28.91 16.31 28.91 15.68 29.3 15.29L29.43 15.16C29.82 14.77 30.45 14.77 30.84 15.16C31.23 15.55 31.23 16.18 30.84 16.57L30.71 16.7C30.52 16.89 30.27 16.99 30.01 16.99ZM15.99 16.99C15.73 16.99 15.48 16.89 15.28 16.7L15.15 16.56C14.76 16.17 14.76 15.54 15.15 15.15C15.54 14.76 16.17 14.76 16.56 15.15L16.69 15.28C17.08 15.67 17.08 16.3 16.69 16.69C16.5 16.89 16.24 16.99 15.99 16.99ZM23 14.04C22.45 14.04 22 13.63 22 13.08V13C22 12.45 22.45 12 23 12C23.55 12 24 12.45 24 13C24 13.55 23.55 14.04 23 14.04Z" fill="#FAFAFA"/>
</svg>
